<svg width="42" height="42" viewBox="0 0 42 42" fill="none" xmlns="http://www.w3.org/2000/svg">
<rect width="42" height="42" rx="21" fill="#D29D19"/>
<path d="M15.0278 19.6611C16.6278 22.8056 19.2 25.3778 22.35 26.9778L24.7944 24.5278C25.1 24.2222 25.5389 24.1333 25.9222 24.2556C27.1667 24.6667 28.5056 24.8889 29.8889 24.8889C30.5056 24.8889 31 25.3833 31 26V29.8889C31 30.5056 30.5056 31 29.8889 31C19.4556 31 11 22.5444 11 12.1111C11 11.4944 11.5 11 12.1111 11H16C16.6167 11 17.1111 11.4944 17.1111 12.1111C17.1111 13.4944 17.3333 14.8333 17.7444 16.0778C17.8667 16.4611 17.7778 16.9 17.4722 17.2056L15.0278 19.6611Z" fill="#FFF5F2"/>
</svg>
