<svg width="42" height="42" viewBox="0 0 42 42" fill="none" xmlns="http://www.w3.org/2000/svg">
<rect width="42" height="42" rx="21" fill="#D29D19"/>
<path fill-rule="evenodd" clip-rule="evenodd" d="M28 12.6667C29.6569 12.6667 31 14.0659 31 15.7917V26.2084C31 27.9343 29.6569 29.3334 28 29.3334H14C12.3431 29.3334 11 27.9343 11 26.2084V15.7917C11 14.0659 12.3431 12.6667 14 12.6667H28ZM29.0001 16.1335L21.6586 22.8258C21.313 23.1408 20.8112 23.1671 20.4395 22.9046L20.3416 22.8258L13.0001 16.1346V26.2085C13.0001 26.7838 13.4478 27.2502 14.0001 27.2502H28.0001C28.5524 27.2502 29.0001 26.7838 29.0001 26.2085V16.1335ZM27.4801 14.7501H14.5181L21.0001 20.6576L27.4801 14.7501Z" fill="#FFF5F2"/>
</svg>
