<svg width="422" height="111" viewBox="0 0 422 111" fill="none" xmlns="http://www.w3.org/2000/svg">
<path d="M0.155273 61.2566V110.757L21.0255 110.529C40.099 110.346 42.2182 110.255 46.0882 109.389C57.5599 106.791 65.1156 102.962 71.7959 96.3077C77.8773 90.3367 82.3462 81.9044 84.2812 72.8339C85.2948 68.0936 85.4791 54.9665 84.5576 50.7276C80.3652 31.5384 67.5574 18.4569 48.4379 13.8533C40.8822 12.0757 36.5054 11.7566 17.8005 11.7566H0.155273V61.2566ZM43.0015 33.316C47.9771 35.0024 50.6953 36.5977 53.8742 39.8339C58.8039 44.711 61.2456 50.9555 61.7524 59.7069C62.2592 68.3671 60.4624 75.2041 56.316 80.6737C50.8335 87.9665 42.8172 91.066 29.5487 91.066H23.1909V61.3933V31.7207L31.3915 31.903C38.6247 32.0853 39.9147 32.2676 43.0015 33.316Z" fill="white"/>
<path d="M125.633 32.2726C112.648 34.6179 102.488 43.0141 97.7803 55.2566C94.8067 62.9961 94.3111 74.5819 96.5413 83.1658C100.803 99.2546 114.631 109.48 133.761 110.653C140.055 111.075 147.786 110.184 153.287 108.448C158.095 106.947 163.447 104.414 163.844 103.523C164.19 102.679 158.342 87.3404 157.797 87.6219C146.299 92.5939 136.387 93.5789 127.913 90.5769C124.146 89.2167 120.38 85.6987 118.992 82.0869C118.397 80.5859 117.902 79.0849 117.902 78.7097C117.902 78.0999 121.222 78.0061 142.434 78.0061H166.966L167.561 76.6927C167.907 75.9422 168.155 72.6119 168.155 68.3903C168.155 58.071 166.222 51.5041 161.316 44.9373C156.806 39.0271 150.71 34.8524 143.673 32.9762C138.717 31.6628 130.787 31.3814 125.633 32.2726ZM138.419 50.05C143.078 51.4103 146.101 54.6468 147.687 60.041C148.232 61.7766 148.629 63.4652 148.629 63.7935C148.629 64.2626 145.358 64.4033 133.216 64.4033H117.753L118.1 62.3863C119.041 56.8045 123.204 51.7386 128.26 50.05C130.638 49.2526 135.545 49.2526 138.419 50.05Z" fill="white"/>
<path d="M178.155 38.2631C178.155 38.6151 182.09 48.4685 186.947 60.2135C191.755 71.9145 198.215 87.6185 201.275 95.1406C205.355 105.126 207.201 109.041 208.075 109.745C209.29 110.713 209.581 110.757 220.655 110.757C231.73 110.757 232.021 110.713 233.235 109.745C234.158 109.041 236.441 103.938 242.27 89.642C246.592 79.1287 251.887 66.24 254.024 61.0493C260.192 46.0492 263.155 38.6151 263.155 38.1752C263.155 37.6473 242.221 37.6033 240.667 38.1312C239.987 38.3951 239.064 39.1869 238.627 39.8907C238.044 40.9465 221.432 85.2871 221.335 86.1229C221.335 86.2549 218.178 77.941 214.292 67.6476C204.141 40.6385 203.85 39.9347 202.247 38.879C200.984 37.9992 200.158 37.9552 189.521 37.8233C180.001 37.6913 178.155 37.7793 178.155 38.2631Z" fill="white"/>
<path d="M317.902 0.750533C318.922 1.44285 319.46 2.58201 320.064 3.62243C320.409 4.21561 320.777 4.78768 321.163 5.35518C321.369 5.66388 321.565 5.97607 321.759 6.29225C323.261 8.73848 324.937 11.0849 326.635 13.3982C326.7 13.4875 326.765 13.5768 326.833 13.6688C327.188 14.1499 327.555 14.6136 327.94 15.0709C328.118 15.2981 328.294 15.5263 328.469 15.7555C328.517 15.8185 328.566 15.8815 328.616 15.9464C328.815 16.2072 329.015 16.4682 329.214 16.7295C329.773 17.4621 330.341 18.1852 330.928 18.8956C331.217 19.2496 331.495 19.6119 331.774 19.9742C332.514 20.9363 333.283 21.8637 334.086 22.774C334.376 23.1044 334.661 23.4386 334.947 23.7729C335.059 23.9036 335.171 24.0343 335.282 24.165C335.338 24.2295 335.393 24.294 335.45 24.3605C335.731 24.6894 336.013 25.0181 336.295 25.3467C336.632 25.7405 336.97 26.1343 337.307 26.5285C338.009 27.3491 338.714 28.1671 339.422 28.9827C339.673 29.2719 339.924 29.5616 340.174 29.8517C340.727 30.493 341.282 31.1313 341.855 31.7551C342.303 32.2442 342.726 32.7486 343.142 33.2645C343.433 33.6217 343.73 33.9732 344.028 34.324C344.486 34.8634 344.938 35.4072 345.384 35.9565C345.595 36.214 345.807 36.4699 346.02 36.7249C347.038 37.9439 347.997 39.2001 348.939 40.4783C349.07 40.6542 349.07 40.6542 349.203 40.8338C352.455 45.255 355.369 50.1404 357.068 55.3839C357.104 55.4948 357.14 55.6057 357.178 55.72C359.087 61.6306 359.596 67.5232 358.874 73.6773C358.862 73.7885 358.849 73.8997 358.836 74.0143C358.528 76.6502 357.921 79.2208 357.059 81.7288C356.967 81.9974 356.878 82.2668 356.791 82.5368C355.785 85.5759 354.329 88.5911 352.472 91.2011C352.308 91.431 352.148 91.6628 351.988 91.8947C350.766 93.6537 349.437 95.3605 347.896 96.8536C347.685 97.0645 347.49 97.2846 347.295 97.5108C346.727 98.1686 346.114 98.759 345.456 99.3255C345.197 99.5512 344.944 99.7836 344.691 100.016C343.371 101.205 341.923 102.241 340.472 103.263C340.402 103.312 340.332 103.361 340.26 103.412C334.748 107.269 328.363 109.553 321.73 110.49C321.586 110.511 321.441 110.532 321.292 110.554C319.807 110.757 318.32 110.754 316.824 110.751C316.387 110.751 315.949 110.754 315.511 110.756C305.04 110.783 294.686 106.6 287.077 99.4067C286.826 99.1693 286.568 98.9419 286.306 98.7163C285.762 98.2428 285.252 97.738 284.742 97.2285C284.649 97.1373 284.557 97.0461 284.461 96.9522C283.982 96.4737 283.55 95.9938 283.155 95.4434C282.944 95.1623 282.692 94.9267 282.441 94.6807C282.107 94.2701 281.791 93.8462 281.472 93.4233C281.312 93.2122 281.149 93.0033 280.986 92.7946C280.087 91.6372 279.333 90.4169 278.603 89.1475C278.556 89.066 278.508 88.9844 278.46 88.9003C278.161 88.3846 277.87 87.865 277.587 87.3408C277.532 87.2399 277.532 87.2399 277.476 87.1369C276.207 84.7772 275.283 82.2304 274.539 79.6621C274.507 79.5557 274.476 79.4492 274.444 79.3395C274.024 77.8813 273.758 76.4122 273.544 74.9123C273.532 74.8296 273.52 74.7468 273.508 74.6616C273.211 72.5734 273.157 70.5052 273.156 68.3982C273.155 68.2647 273.155 68.1313 273.155 67.9939C273.158 65.2365 273.375 62.6431 274.021 59.9568C274.079 59.7072 274.133 59.4574 274.184 59.2061C274.413 58.124 274.746 57.0814 275.096 56.0332C275.132 55.9258 275.132 55.9258 275.168 55.8163C276.03 53.2387 277.071 50.7655 278.377 48.3828C278.471 48.2087 278.566 48.0346 278.66 47.8605C279.235 46.8048 279.848 45.7797 280.494 44.7661C280.636 44.5416 280.775 44.3155 280.913 44.0887C281.519 43.0974 282.173 42.1583 282.869 41.2285C283.059 40.9707 283.241 40.7072 283.422 40.443C283.747 39.9744 284.096 39.5305 284.456 39.0879C284.676 38.8141 284.89 38.5366 285.102 38.257C285.637 37.552 286.196 36.8722 286.772 36.1996C287.041 35.8843 287.303 35.5639 287.564 35.2415C288.089 34.5973 288.633 33.9713 289.178 33.3448C289.534 32.9365 289.887 32.5262 290.239 32.115C290.321 32.0182 290.321 32.0182 290.406 31.9195C290.69 31.5884 290.973 31.2569 291.255 30.9249C291.778 30.3112 292.304 29.7023 292.849 29.1084C293.306 28.6106 293.735 28.0952 294.159 27.5695C294.404 27.2724 294.657 26.9864 294.917 26.7018C295.359 26.2164 295.774 25.7131 296.187 25.2025C296.436 24.9017 296.693 24.6119 296.956 24.3234C297.288 23.9591 297.604 23.5884 297.909 23.2012C298.214 22.814 298.529 22.4434 298.861 22.0791C299.835 21.0976 299.835 21.0976 300.505 19.9265C300.692 19.7365 300.88 19.5486 301.07 19.3619C301.289 19.1065 301.497 18.8428 301.705 18.5785C301.764 18.5045 301.822 18.4305 301.883 18.3543C302.064 18.1258 302.244 17.897 302.425 17.6681C302.533 17.5312 302.641 17.3943 302.749 17.2574C303.439 16.3837 304.121 15.5048 304.796 14.6192C304.848 14.5502 304.901 14.4813 304.955 14.4102C305.832 13.2562 306.678 12.0828 307.505 10.8928C307.556 10.8195 307.607 10.7462 307.66 10.6707C308.918 8.86049 310.15 7.03153 311.305 5.15388C311.478 4.8733 311.651 4.59306 311.824 4.31286C311.888 4.20981 311.952 4.10676 312.017 4.00059C312.146 3.79321 312.274 3.58595 312.403 3.3788C312.788 2.75953 312.788 2.75953 313.162 2.13338C313.684 1.25799 314.296 0.654731 315.281 0.331046C316.21 0.126401 317.08 0.285755 317.902 0.750533ZM316.086 13.6029C315.897 13.8913 315.722 14.1806 315.549 14.478C314.546 16.1618 313.393 17.7407 312.209 19.3015C311.951 19.6426 311.699 19.988 311.45 20.3358C310.603 21.5043 309.689 22.6186 308.769 23.7297C308.357 24.2282 307.952 24.731 307.555 25.2409C306.873 26.1145 306.175 26.9737 305.473 27.831C305.407 27.9113 305.342 27.9917 305.274 28.0744C304.024 29.5999 302.751 31.104 301.467 32.6001C301.24 32.8642 301.014 33.1285 300.787 33.3928C300.675 33.524 300.562 33.6552 300.45 33.7864C300.162 34.1225 299.874 34.4589 299.586 34.7956C298.612 35.9354 298.612 35.9354 298.113 36.4907C297.794 36.847 297.49 37.2125 297.189 37.5846C296.751 38.1256 296.288 38.6388 295.817 39.151C295.454 39.5556 295.114 39.977 294.773 40.4002C294.523 40.7026 294.264 40.9933 294 41.2828C293.628 41.6911 293.283 42.1089 292.95 42.5479C292.699 42.8704 292.442 43.1861 292.183 43.5018C291.543 44.283 290.93 45.0752 290.344 45.8985C290.127 46.2003 289.908 46.5012 289.688 46.8019C289.635 46.875 289.582 46.9482 289.528 47.0236C289.478 47.0925 289.427 47.1614 289.376 47.2324C289.331 47.2937 289.287 47.355 289.241 47.4181C289.094 47.6035 288.931 47.7639 288.764 47.9311C288.674 48.0812 288.59 48.2345 288.51 48.3898C288.304 48.7726 288.08 49.1247 287.825 49.4767C287.379 50.1029 287.003 50.7633 286.63 51.4347C286.501 51.6665 286.369 51.8969 286.237 52.1273C284.067 55.9391 282.623 59.9574 281.99 64.3048C281.977 64.3878 281.963 64.4708 281.95 64.5563C281.485 67.5189 281.633 70.7281 282.103 73.6773C282.117 73.7658 282.131 73.8544 282.145 73.9457C282.688 77.3196 283.782 80.5958 285.377 83.6144C285.446 83.7458 285.515 83.8773 285.585 84.0127C286.513 85.7598 287.562 87.4392 288.843 88.9508C289.087 89.2422 289.324 89.5386 289.561 89.8361C290.085 90.4771 290.649 91.068 291.237 91.6501C291.403 91.8152 291.568 91.9815 291.733 92.1479C292.437 92.853 293.176 93.4974 293.957 94.1161C294.087 94.2223 294.216 94.3287 294.345 94.4355C296.436 96.122 298.765 97.4726 301.183 98.633C301.293 98.6871 301.293 98.6871 301.406 98.7423C303.6 99.8073 306.025 100.611 308.408 101.117C308.576 101.155 308.743 101.193 308.911 101.231C315.477 102.681 323.016 102.142 329.182 99.4234C329.337 99.357 329.492 99.2907 329.648 99.2245C332.669 97.9219 335.63 96.4313 338.087 94.2128C338.346 93.9867 338.613 93.775 338.882 93.5616C339.583 92.9893 340.224 92.3661 340.861 91.7241C341.05 91.5332 341.241 91.3436 341.432 91.1541C342.178 90.4089 342.871 89.6417 343.52 88.8088C343.582 88.7306 343.643 88.6524 343.707 88.5718C344.551 87.4925 345.3 86.37 346.004 85.1953C346.074 85.0794 346.145 84.9635 346.218 84.8442C347.32 83.0023 348.399 80.9563 348.939 78.8717C349.01 78.6341 349.08 78.3964 349.151 78.1588C351.1 71.2532 351.079 64.446 348.713 57.6424C348.678 57.5411 348.643 57.4399 348.607 57.3356C348.153 56.061 347.564 54.8509 346.964 53.6407C346.928 53.5697 346.893 53.4986 346.857 53.4254C346.36 52.4241 345.812 51.4732 345.214 50.5283C345.098 50.3427 344.984 50.157 344.869 49.9712C344.191 48.8862 343.486 47.8328 342.73 46.8019C342.65 46.6905 342.569 46.5792 342.487 46.4644C342.083 45.9044 341.669 45.3548 341.245 44.8107C341.048 44.5582 340.852 44.3049 340.657 44.0512C339.915 43.0891 339.162 42.1418 338.368 41.2221C338.206 41.0341 338.045 40.8456 337.883 40.6569C337.657 40.3917 337.43 40.1267 337.202 39.862C336.973 39.5948 336.744 39.3269 336.516 39.0584C335.926 38.3644 335.327 37.6825 334.707 37.0149C334.283 36.5561 333.891 36.0766 333.5 35.5904C333.236 35.2718 332.962 34.967 332.682 34.6628C332.228 34.1696 331.802 33.6613 331.381 33.1401C331.05 32.7378 330.71 32.3451 330.367 31.9527C329.858 31.3681 329.359 30.7769 328.871 30.1742C328.579 29.8173 328.281 29.4664 327.982 29.1155C327.5 28.5488 327.039 27.9692 326.585 27.3793C326.403 27.1451 326.219 26.923 326.021 26.7018C325.946 26.7018 325.872 26.7018 325.795 26.7018C325.782 26.6342 325.768 26.5665 325.755 26.4969C325.638 26.1004 325.346 25.832 325.075 25.5302C324.436 24.802 323.833 24.0524 323.239 23.2864C323.032 23.0199 322.823 22.7549 322.614 22.4899C320.714 20.0791 318.893 17.6261 317.224 15.0488C317.166 14.9582 317.107 14.8677 317.046 14.7743C316.834 14.4409 316.631 14.1022 316.432 13.7613C316.372 13.6829 316.372 13.6829 316.311 13.6029C316.237 13.6029 316.162 13.6029 316.086 13.6029Z" fill="#FECD3B"/>
<path d="M299.072 48.2984C299.576 48.6264 299.85 48.8826 300.009 49.4756C300.109 50.0729 300.072 50.6837 300.063 51.2873C300.062 51.439 300.06 51.5908 300.059 51.7426C300.055 52.383 300.048 53.0233 300.039 53.6637C300.035 54.057 300.031 54.4504 300.029 54.8438C300.028 55.0626 300.024 55.2814 300.02 55.5002C300.01 57.4016 300.392 59.6441 301.633 61.1432C301.695 61.2192 301.758 61.2952 301.822 61.3735C303.244 62.9454 305.558 63.6361 307.617 63.7533C308.11 63.7711 308.603 63.7726 309.097 63.7699C309.352 63.7686 309.606 63.7699 309.861 63.7713C311.364 63.7729 312.812 63.5968 314.278 63.2534C314.384 63.2287 314.491 63.204 314.601 63.1786C315.411 62.9857 316.196 62.7558 316.979 62.4705C317.249 62.3724 317.519 62.2766 317.79 62.1807C318 62.1055 318.21 62.0302 318.42 61.9548C318.513 61.9215 318.606 61.8882 318.702 61.8539C319.394 61.6019 320.077 61.3299 320.76 61.0541C321.926 60.5849 323.101 60.1474 324.284 59.7246C324.386 59.6879 324.489 59.6513 324.594 59.6135C326.254 59.0209 327.914 58.497 329.632 58.0943C329.71 58.0753 329.789 58.0562 329.869 58.0365C330.691 57.8366 331.521 57.7007 332.356 57.5721C332.446 57.5581 332.537 57.5442 332.63 57.5298C335.628 57.0888 339.026 56.7976 341.585 58.67C341.664 58.7409 341.744 58.8117 341.825 58.8848C341.825 58.9593 341.825 59.0338 341.825 59.1106C341.9 59.1106 341.974 59.1106 342.051 59.1106C344.449 61.9714 344.531 66.657 344.253 70.1858C343.696 76.2428 341.514 81.8878 337.422 86.4377C337.32 86.5645 337.218 86.6915 337.116 86.8188C337.031 86.9166 336.946 87.0144 336.858 87.1152C336.783 87.1152 336.709 87.1152 336.632 87.1152C336.602 87.1823 336.572 87.2493 336.541 87.3184C336.403 87.5731 336.266 87.7311 336.057 87.9299C335.95 88.0311 335.95 88.0311 335.842 88.1343C335.765 88.2056 335.688 88.2769 335.609 88.3503C335.529 88.4249 335.448 88.4996 335.366 88.5765C330.059 93.4362 323.155 95.8327 316.014 95.8384C315.928 95.8385 315.841 95.8386 315.752 95.8387C313.376 95.8354 311.092 95.5602 308.787 94.9742C308.548 94.9139 308.309 94.8572 308.069 94.8018C305.504 94.1778 302.927 92.9739 300.73 91.5192C300.563 91.4117 300.563 91.4117 300.392 91.3022C298.729 90.2206 297.273 88.971 295.875 87.5669C295.768 87.4615 295.66 87.3562 295.552 87.2511C294.887 86.6005 294.284 85.9448 293.73 85.1956C293.597 85.0283 293.464 84.861 293.331 84.6939C292.637 83.8139 292.045 82.8829 291.472 81.9208C291.407 81.8128 291.407 81.8128 291.34 81.7026C289.542 78.7107 288.63 75.5232 288.085 72.0966C288.065 71.9936 288.045 71.8906 288.024 71.7844C287.955 71.2966 287.95 70.8159 287.946 70.3238C287.944 70.2177 287.943 70.1116 287.942 70.0023C287.923 67.6913 287.925 65.4436 288.424 63.1758C288.448 63.066 288.471 62.9562 288.496 62.843C289.252 59.4267 290.677 55.8468 292.774 53.0177C292.946 52.7868 292.946 52.7868 293.093 52.5241C293.33 52.139 293.604 51.7924 293.886 51.439C293.938 51.3718 293.991 51.3046 294.046 51.2354C294.203 51.0367 294.362 50.8389 294.521 50.6415C294.57 50.58 294.619 50.5185 294.67 50.4551C295.068 49.968 295.509 49.5761 295.988 49.1735C296.077 49.0943 296.165 49.0151 296.256 48.9335C297.153 48.2933 297.994 47.8915 299.072 48.2984Z" fill="#FECD3B"/>
<path d="M370.4 7.8441L369.188 8.91659V15.8645C369.188 19.7347 369.234 23.3253 369.234 23.8848C369.281 24.4444 369.747 25.3303 370.307 25.8899C371.239 26.7759 371.892 26.8225 379.399 26.8225C387.466 26.8225 387.513 26.8225 388.679 25.6568L389.845 24.491L389.705 16.5173C389.518 6.11879 390.171 6.77161 379.493 6.77161C371.985 6.77161 371.612 6.81824 370.4 7.8441Z" fill="white"/>
<path d="M370.447 34.4699L369.281 35.6357V72.1936V108.752L370.353 109.731C371.379 110.71 371.845 110.757 379.493 110.757C387.42 110.757 387.513 110.757 388.679 109.591L389.798 108.472L389.705 72.1003L389.565 35.7289L388.492 34.6564C387.513 33.6306 387.047 33.5839 379.539 33.444L371.612 33.3042L370.447 34.4699Z" fill="white"/>
<path d="M401.04 10.8889L399.845 11.9759V60.2566V108.537L401.04 109.624C402.188 110.757 402.284 110.757 410.845 110.757C419.406 110.757 419.501 110.757 420.649 109.624L421.845 108.537V60.2566V11.9759L420.649 10.8889C419.501 9.75659 419.406 9.75659 410.845 9.75659C402.284 9.75659 402.188 9.75659 401.04 10.8889Z" fill="white"/>
</svg>
