<svg width="1007" height="1293" viewBox="0 0 1007 1293" fill="none" xmlns="http://www.w3.org/2000/svg">
<path d="M523.323 5.93088C535.248 14.0275 541.543 27.3503 548.601 39.518C552.637 46.4554 556.938 53.1457 561.454 59.7828C563.862 63.393 566.158 67.0441 568.427 70.7418C585.992 99.3508 605.588 126.792 625.446 153.847C626.211 154.891 626.977 155.935 627.765 157.011C631.917 162.638 636.208 168.062 640.713 173.409C642.79 176.066 644.853 178.735 646.902 181.415C647.467 182.152 648.032 182.889 648.614 183.648C650.952 186.698 653.286 189.751 655.617 192.806C662.155 201.375 668.793 209.831 675.661 218.14C679.043 222.279 682.292 226.517 685.55 230.753C694.209 242.006 703.196 252.851 712.586 263.497C715.978 267.362 719.318 271.271 722.658 275.18C723.966 276.709 725.275 278.237 726.583 279.766C727.228 280.52 727.874 281.275 728.539 282.052C731.83 285.899 735.125 289.742 738.42 293.586C742.367 298.191 746.314 302.797 750.257 307.406C758.47 317.004 766.718 326.57 774.998 336.11C777.934 339.492 780.863 342.88 783.787 346.272C790.258 353.773 796.746 361.238 803.448 368.532C808.687 374.252 813.631 380.152 818.504 386.185C821.905 390.362 825.376 394.473 828.865 398.577C834.222 404.885 839.507 411.245 844.725 417.669C847.187 420.68 849.666 423.673 852.163 426.655C864.064 440.912 875.285 455.602 886.302 470.551C887.828 472.609 887.828 472.609 889.386 474.709C927.42 526.415 961.498 583.551 981.368 644.874C981.791 646.171 982.214 647.468 982.649 648.804C1004.98 717.93 1010.94 786.844 1002.49 858.817C1002.35 860.118 1002.2 861.419 1002.05 862.759C998.442 893.586 991.342 923.649 981.268 952.981C980.192 956.122 979.151 959.272 978.124 962.43C966.364 997.972 949.338 1033.24 927.615 1063.76C925.705 1066.45 923.828 1069.16 921.952 1071.87C907.663 1092.44 892.128 1112.4 874.104 1129.87C871.632 1132.33 869.352 1134.91 867.074 1137.55C860.434 1145.25 853.259 1152.15 845.561 1158.78C842.53 1161.42 839.581 1164.13 836.623 1166.85C821.177 1180.75 804.244 1192.87 787.274 1204.82C786.456 1205.4 785.639 1205.98 784.796 1206.57C720.335 1251.68 645.664 1278.39 568.092 1289.34C566.399 1289.59 564.706 1289.84 562.961 1290.1C545.601 1292.46 528.21 1292.43 510.716 1292.4C505.595 1292.4 500.474 1292.43 495.353 1292.46C372.898 1292.77 251.806 1243.85 162.821 1159.72C159.879 1156.95 156.86 1154.29 153.795 1151.65C147.436 1146.11 141.468 1140.21 135.506 1134.25C134.423 1133.18 133.341 1132.12 132.225 1131.02C126.618 1125.42 121.564 1119.81 116.949 1113.37C114.474 1110.09 111.536 1107.33 108.603 1104.45C104.695 1099.65 100.994 1094.7 97.2696 1089.75C95.3946 1087.28 93.4896 1084.84 91.5775 1082.4C81.068 1068.86 72.2435 1054.59 63.7104 1039.74C63.157 1038.79 62.6037 1037.84 62.0335 1036.85C58.5405 1030.82 55.1418 1024.74 51.8271 1018.61C51.1856 1017.43 51.1856 1017.43 50.5312 1016.23C35.6943 988.632 24.8826 958.846 16.1771 928.81C15.8115 927.565 15.446 926.32 15.0694 925.037C10.1589 907.983 7.05087 890.802 4.54129 873.261C4.40211 872.294 4.26293 871.326 4.11953 870.329C0.656398 845.907 0.0151599 821.719 0.00251663 797.077C0.00162572 795.517 0.000734803 793.957 -0.000183105 792.349C0.0290786 760.102 2.56486 729.771 10.1193 698.354C10.8069 695.435 11.4352 692.514 12.0303 689.575C14.71 676.919 18.6086 664.726 22.6964 652.468C23.1147 651.212 23.1147 651.212 23.5414 649.931C33.6256 619.786 45.7897 590.862 61.0697 562.995C62.1719 560.959 63.274 558.923 64.3758 556.887C71.1023 544.541 78.2766 532.552 85.8324 520.698C87.4908 518.072 89.1155 515.428 90.7316 512.775C97.8165 501.183 105.462 490.199 113.601 479.325C115.828 476.31 117.953 473.229 120.074 470.138C123.877 464.658 127.959 459.467 132.163 454.291C134.733 451.088 137.235 447.843 139.718 444.573C145.981 436.328 152.518 428.378 159.246 420.511C162.397 416.824 165.465 413.077 168.515 409.307C174.648 401.772 181.014 394.451 187.392 387.124C191.548 382.349 195.675 377.551 199.791 372.742C200.761 371.61 200.761 371.61 201.749 370.456C205.065 366.583 208.376 362.706 211.68 358.823C217.796 351.646 223.943 344.525 230.325 337.58C235.668 331.758 240.676 325.73 245.638 319.581C248.505 316.107 251.47 312.763 254.504 309.434C259.677 303.757 264.525 297.87 269.353 291.899C272.265 288.381 275.276 284.992 278.353 281.618C282.236 277.358 285.927 273.022 289.494 268.494C293.061 263.966 296.752 259.631 300.634 255.37C312.022 243.892 312.022 243.892 319.862 230.196C322.042 227.974 324.247 225.777 326.464 223.593C329.025 220.606 331.457 217.522 333.891 214.431C334.578 213.565 335.264 212.7 335.972 211.808C338.089 209.137 340.199 206.461 342.309 203.783C343.574 202.182 344.839 200.581 346.105 198.98C354.168 188.762 362.152 178.483 370.036 168.126C370.651 167.32 371.265 166.513 371.898 165.682C382.154 152.186 392.049 138.463 401.725 124.545C402.322 123.688 402.919 122.831 403.534 121.948C418.248 100.778 432.655 79.3878 446.168 57.4284C448.187 54.1471 450.213 50.8697 452.24 47.5927C452.985 46.3875 453.73 45.1823 454.498 43.9406C455.999 41.5154 457.502 39.0914 459.008 36.6688C463.509 29.4263 463.509 29.4263 467.878 22.1035C473.986 11.8657 481.149 4.81047 492.661 1.02494C503.528 -1.36841 513.71 0.495252 523.323 5.93088ZM502.074 156.24C499.874 159.614 497.823 162.997 495.802 166.475C484.064 186.167 470.584 204.632 456.743 222.886C453.719 226.876 450.774 230.916 447.856 234.983C437.955 248.648 427.264 261.681 416.507 274.675C411.69 280.504 406.953 286.385 402.303 292.348C394.334 302.565 386.166 312.614 377.959 322.64C377.19 323.579 376.421 324.519 375.629 325.486C361.016 343.327 346.128 360.918 331.107 378.416C328.456 381.504 325.807 384.595 323.159 387.686C321.844 389.22 320.529 390.755 319.214 392.289C315.844 396.22 312.477 400.154 309.114 404.091C297.721 417.422 297.721 417.422 291.887 423.916C288.152 428.083 284.593 432.357 281.077 436.71C275.949 443.036 270.543 449.038 265.031 455.028C260.783 459.761 256.808 464.689 252.817 469.638C249.897 473.175 246.869 476.574 243.776 479.96C239.435 484.735 235.4 489.621 231.496 494.756C228.568 498.527 225.556 502.219 222.53 505.911C215.042 515.048 207.879 524.313 201.029 533.941C198.482 537.471 195.92 540.99 193.354 544.506C192.735 545.362 192.117 546.217 191.479 547.099C190.891 547.905 190.303 548.711 189.698 549.541C189.177 550.258 188.657 550.975 188.12 551.713C186.401 553.881 184.498 555.758 182.544 557.713C181.496 559.468 180.509 561.261 179.573 563.078C177.162 567.555 174.55 571.672 171.568 575.789C166.35 583.112 161.95 590.836 157.592 598.688C156.078 601.398 154.539 604.094 152.995 606.788C127.609 651.367 110.725 698.362 103.322 749.204C103.167 750.175 103.012 751.146 102.853 752.146C97.4134 786.794 99.1425 824.327 104.642 858.817C104.804 859.853 104.966 860.889 105.133 861.956C111.487 901.414 124.286 939.73 142.933 975.033C143.738 976.57 144.543 978.107 145.372 979.691C156.218 1000.12 168.483 1019.76 183.465 1037.44C186.326 1040.85 189.097 1044.32 191.869 1047.8C197.996 1055.29 204.596 1062.2 211.462 1069.01C213.406 1070.94 215.336 1072.89 217.265 1074.83C225.498 1083.08 234.142 1090.62 243.281 1097.85C244.794 1099.09 246.306 1100.34 247.814 1101.59C272.274 1121.31 299.512 1137.11 327.785 1150.68C329.078 1151.31 329.078 1151.31 330.398 1151.95C356.052 1164.41 384.418 1173.81 412.288 1179.73C414.247 1180.18 416.205 1180.62 418.163 1181.07C494.956 1198.01 583.127 1191.72 655.237 1159.92C657.052 1159.14 658.867 1158.37 660.683 1157.59C696.015 1142.36 730.643 1124.93 759.383 1098.98C762.407 1096.34 765.536 1093.86 768.685 1091.37C776.883 1084.67 784.371 1077.38 791.821 1069.88C794.038 1067.64 796.269 1065.43 798.502 1063.21C807.228 1054.49 815.333 1045.52 822.924 1035.78C823.645 1034.87 824.367 1033.95 825.111 1033.01C834.98 1020.39 843.744 1007.26 851.972 993.521C852.797 992.166 853.623 990.811 854.473 989.415C867.366 967.875 879.984 943.945 886.302 919.566C887.127 916.787 887.952 914.008 888.777 911.229C911.574 830.467 911.325 750.857 883.661 671.287C883.25 670.103 882.839 668.919 882.415 667.699C877.112 652.793 870.22 638.641 863.195 624.487C862.784 623.656 862.373 622.825 861.95 621.969C856.132 610.259 849.733 599.138 842.729 588.087C841.383 585.916 840.039 583.745 838.696 581.572C830.776 568.883 822.531 556.563 813.681 544.506C812.743 543.204 811.806 541.902 810.839 540.56C806.12 534.01 801.278 527.583 796.311 521.219C794.01 518.266 791.723 515.303 789.44 512.337C780.764 501.085 771.958 490.006 762.675 479.25C760.778 477.052 758.89 474.847 757.003 472.64C754.351 469.538 751.694 466.44 749.035 463.344C746.351 460.219 743.676 457.085 741.009 453.945C734.106 445.83 727.099 437.855 719.85 430.047C714.899 424.681 710.311 419.073 705.736 413.387C702.653 409.661 699.443 406.096 696.168 402.538C690.865 396.77 685.877 390.826 680.958 384.73C677.089 380.026 673.104 375.433 669.101 370.843C663.142 364.007 657.311 357.093 651.606 350.043C648.192 345.87 644.704 341.766 641.208 337.662C635.568 331.035 630.173 324.257 624.868 317.358C622.738 314.619 620.587 312.02 618.266 309.434C617.395 309.434 616.523 309.434 615.625 309.434C615.471 308.643 615.317 307.852 615.158 307.037C613.787 302.4 610.38 299.262 607.208 295.732C599.731 287.215 592.676 278.448 585.737 269.491C583.315 266.373 580.871 263.274 578.427 260.175C556.207 231.981 534.904 203.293 515.391 173.151C514.704 172.091 514.018 171.032 513.311 169.941C510.83 166.041 508.459 162.08 506.12 158.093C505.424 157.176 505.424 157.176 504.714 156.24C503.843 156.24 502.971 156.24 502.074 156.24Z" fill="#FECD3B"/>
<path d="M303.101 562.007C308.991 565.843 312.202 568.839 314.056 575.775C315.229 582.76 314.799 589.904 314.69 596.962C314.675 598.737 314.662 600.512 314.65 602.288C314.598 609.777 314.513 617.266 314.418 624.755C314.36 629.355 314.324 633.956 314.298 638.556C314.278 641.115 314.235 643.674 314.19 646.233C314.068 668.471 318.541 694.696 333.057 712.229C333.783 713.117 334.51 714.006 335.259 714.922C351.9 733.305 378.957 741.383 403.039 742.754C408.808 742.962 414.574 742.98 420.347 742.948C423.324 742.934 426.301 742.948 429.279 742.964C446.863 742.983 463.788 740.923 480.938 736.908C482.183 736.619 483.428 736.33 484.711 736.033C494.19 733.776 503.369 731.088 512.532 727.751C515.685 726.604 518.847 725.484 522.009 724.362C524.466 723.483 526.923 722.603 529.379 721.721C530.467 721.331 531.554 720.942 532.675 720.54C540.772 717.593 548.762 714.412 556.751 711.187C570.379 705.699 584.123 700.583 597.956 695.638C599.154 695.209 600.352 694.78 601.586 694.338C621.004 687.408 640.418 681.281 660.509 676.572C661.423 676.349 662.337 676.126 663.28 675.896C672.886 673.558 682.598 671.969 692.363 670.464C693.418 670.301 694.474 670.138 695.562 669.97C730.624 664.812 770.368 661.407 800.293 683.304C801.222 684.133 802.151 684.962 803.109 685.816C803.109 686.688 803.109 687.559 803.109 688.457C803.98 688.457 804.852 688.457 805.749 688.457C833.794 721.915 834.75 776.713 831.502 817.983C824.984 888.82 799.467 954.839 751.614 1008.05C750.418 1009.53 749.225 1011.02 748.035 1012.51C747.037 1013.65 746.04 1014.8 745.012 1015.97C744.141 1015.97 743.269 1015.97 742.372 1015.97C742.02 1016.76 741.669 1017.54 741.307 1018.35C739.691 1021.33 738.085 1023.18 735.641 1025.5C734.398 1026.69 734.398 1026.69 733.129 1027.89C732.23 1028.73 731.332 1029.56 730.406 1030.42C729.467 1031.29 728.528 1032.16 727.561 1033.06C665.495 1089.9 584.758 1117.93 501.239 1117.99C500.23 1117.99 499.221 1117.99 498.182 1118C470.39 1117.96 443.674 1114.74 416.719 1107.89C413.927 1107.18 411.129 1106.52 408.323 1105.87C378.328 1098.57 348.182 1084.49 322.494 1067.48C320.535 1066.22 320.535 1066.22 318.538 1064.94C299.087 1052.29 282.059 1037.68 265.718 1021.26C264.457 1020.02 263.195 1018.79 261.932 1017.56C254.157 1009.95 247.108 1002.29 240.631 993.523C239.075 991.567 237.52 989.611 235.963 987.656C227.847 977.364 220.924 966.477 214.223 955.225C213.46 953.962 213.46 953.962 212.681 952.673C191.644 917.682 180.982 880.404 174.612 840.33C174.375 839.125 174.138 837.92 173.894 836.679C173.09 830.974 173.026 825.352 172.977 819.597C172.964 818.356 172.951 817.115 172.938 815.836C172.715 788.809 172.732 762.522 178.573 736C178.849 734.716 179.125 733.431 179.409 732.108C188.256 692.154 204.92 650.287 229.444 617.2C231.456 614.5 231.456 614.5 233.178 611.427C235.95 606.923 239.155 602.87 242.446 598.737C243.066 597.951 243.685 597.166 244.324 596.356C246.162 594.032 248.014 591.718 249.873 589.41C250.451 588.691 251.028 587.971 251.623 587.23C256.27 581.533 261.431 576.95 267.038 572.242C268.073 571.316 269.108 570.39 270.174 569.435C280.656 561.947 290.495 557.249 303.101 562.007Z" fill="#FECD3B"/>
</svg>
