<svg width="20" height="17" viewBox="0 0 20 17" fill="none" xmlns="http://www.w3.org/2000/svg">
<path fill-rule="evenodd" clip-rule="evenodd" d="M17 0.166504C18.6569 0.166504 20 1.56561 20 3.2915V13.7082C20 15.4341 18.6569 16.8332 17 16.8332H3C1.34315 16.8332 0 15.4341 0 13.7082V3.2915C0 1.56561 1.34315 0.166504 3 0.166504H17ZM18.0001 3.6333L10.6586 10.3256C10.313 10.6406 9.81118 10.6668 9.43953 10.4043L9.34162 10.3256L2.00012 3.63434V13.7083C2.00012 14.2836 2.44784 14.75 3.00012 14.75H17.0001C17.5524 14.75 18.0001 14.2836 18.0001 13.7083V3.6333ZM16.4801 2.24984H3.51807L10.0001 8.15737L16.4801 2.24984Z" fill="#D29D19"/>
</svg>
