<svg width="20" height="21" viewBox="0 0 20 21" fill="none" xmlns="http://www.w3.org/2000/svg">
<path d="M4.02778 9.16111C5.62778 12.3056 8.2 14.8778 11.35 16.4778L13.7944 14.0278C14.1 13.7222 14.5389 13.6333 14.9222 13.7556C16.1667 14.1667 17.5056 14.3889 18.8889 14.3889C19.5056 14.3889 20 14.8833 20 15.5V19.3889C20 20.0056 19.5056 20.5 18.8889 20.5C8.45556 20.5 0 12.0444 0 1.61111C0 0.994444 0.5 0.5 1.11111 0.5H5C5.61667 0.5 6.11111 0.994444 6.11111 1.61111C6.11111 2.99444 6.33333 4.33333 6.74444 5.57778C6.86667 5.96111 6.77778 6.4 6.47222 6.70556L4.02778 9.16111Z" fill="#D29D19"/>
</svg>
