<svg width="112" height="30" viewBox="0 0 112 30" fill="none" xmlns="http://www.w3.org/2000/svg">
<path d="M0 16.4628V29.4628L5.40171 29.403C10.3384 29.3551 10.8869 29.3312 11.8885 29.1037C14.8577 28.4214 16.8133 27.4159 18.5423 25.6682C20.1163 24.1 21.273 21.8855 21.7738 19.5033C22.0361 18.2584 22.0838 14.8109 21.8453 13.6976C20.7602 8.65804 17.4453 5.2225 12.4967 4.01347C10.5411 3.54662 9.40827 3.46283 4.56701 3.46283H0V16.4628ZM11.0896 9.12489C12.3774 9.5678 13.081 9.98677 13.9037 10.8367C15.1796 12.1175 15.8116 13.7575 15.9428 16.0558C16.074 18.3302 15.6089 20.1258 14.5357 21.5623C13.1167 23.4776 11.0419 24.2916 7.6077 24.2916H5.96215V16.4987V8.70592L8.08468 8.75381C9.95679 8.80169 10.2907 8.84957 11.0896 9.12489Z" fill="white"/>
<path d="M32.9325 8.59999C29.553 9.22343 26.9086 11.4553 25.6832 14.7097C24.9093 16.767 24.7803 19.8468 25.3607 22.1286C26.4701 26.4053 30.0689 29.1235 35.048 29.4352C36.6862 29.5475 38.6985 29.3105 40.1303 28.8492C41.3815 28.4502 42.7746 27.7769 42.8778 27.54C42.9681 27.3156 41.446 23.2383 41.3041 23.3131C38.3115 24.6348 35.7316 24.8966 33.5259 24.0986C32.5456 23.737 31.5652 22.8019 31.204 21.8418C31.0493 21.4428 30.9203 21.0438 30.9203 20.944C30.9203 20.7819 31.7845 20.757 37.3053 20.757H43.6904L43.8452 20.4079C43.9355 20.2084 44 19.3231 44 18.2009C44 15.4578 43.4969 13.7122 42.2199 11.9665C41.0461 10.3955 39.4595 9.28577 37.6278 8.78702C36.3379 8.4379 34.274 8.36309 32.9325 8.59999ZM36.2605 13.3256C37.473 13.6872 38.2599 14.5476 38.6727 15.9815C38.8145 16.4428 38.9177 16.8917 38.9177 16.979C38.9177 17.1037 38.0664 17.1411 34.9061 17.1411H30.8816L30.9719 16.6049C31.2169 15.1211 32.3005 13.7745 33.6162 13.3256C34.2353 13.1137 35.5124 13.1137 36.2605 13.3256Z" fill="white"/>
<path d="M46 10.5947C46 10.6863 47.0183 13.2509 48.2754 16.3078C49.52 19.3533 51.192 23.4406 51.984 25.3984C53.04 27.9973 53.5177 29.0163 53.744 29.1995C54.0583 29.4514 54.1337 29.4628 57 29.4628C59.8663 29.4628 59.9417 29.4514 60.256 29.1995C60.4949 29.0163 61.0857 27.6882 62.5943 23.9673C63.7131 21.2309 65.0834 17.8763 65.6366 16.5253C67.2331 12.6212 68 10.6863 68 10.5718C68 10.4344 62.5817 10.4229 62.1794 10.5603C62.0034 10.629 61.7646 10.8351 61.6514 11.0183C61.5006 11.2931 57.2011 22.8338 57.176 23.0513C57.176 23.0857 56.3589 20.9218 55.3531 18.2427C52.7257 11.2129 52.6503 11.0297 52.2354 10.755C51.9086 10.526 51.6949 10.5145 48.9417 10.4802C46.4777 10.4458 46 10.4687 46 10.5947Z" fill="white"/>
<path d="M81.7121 0.669905C81.979 0.851111 82.1199 1.14928 82.2778 1.42159C82.3682 1.57685 82.4644 1.72659 82.5655 1.87513C82.6194 1.95592 82.6708 2.03764 82.7216 2.12039C83.1147 2.76067 83.5532 3.37481 83.9977 3.98031C84.0148 4.00368 84.0319 4.02704 84.0496 4.05112C84.1425 4.17705 84.2385 4.29843 84.3393 4.41811C84.3858 4.47758 84.432 4.53732 84.4778 4.59729C84.4905 4.61378 84.5031 4.63027 84.5162 4.64727C84.5685 4.71552 84.6207 4.78385 84.6729 4.85223C84.8192 5.04399 84.9678 5.23326 85.1215 5.4192C85.1972 5.51184 85.2699 5.60667 85.3428 5.7015C85.5366 5.95333 85.7377 6.19605 85.9479 6.43432C86.0238 6.5208 86.0985 6.60829 86.1733 6.69577C86.2026 6.72999 86.2319 6.7642 86.2611 6.79841C86.2756 6.8153 86.29 6.83218 86.3049 6.84957C86.3786 6.93566 86.4523 7.02169 86.5261 7.10771C86.6144 7.21078 86.7027 7.31386 86.791 7.41701C86.9748 7.63182 87.1594 7.8459 87.3447 8.0594C87.4104 8.13509 87.4759 8.21092 87.5414 8.28684C87.6862 8.4547 87.8314 8.62177 87.9814 8.78502C88.0986 8.91304 88.2093 9.04507 88.3183 9.1801C88.3945 9.27359 88.4721 9.3656 88.5502 9.45742C88.6701 9.59861 88.7884 9.74094 88.9052 9.88472C88.9603 9.95211 89.0158 10.0191 89.0716 10.0858C89.338 10.4049 89.5891 10.7337 89.8357 11.0682C89.8699 11.1143 89.8699 11.1143 89.9047 11.1613C90.7559 12.3185 91.5186 13.5972 91.9633 14.9696C91.9728 14.9987 91.9822 15.0277 91.992 15.0576C92.4917 16.6047 92.625 18.147 92.4361 19.7577C92.4328 19.7868 92.4295 19.816 92.4261 19.846C92.3454 20.5359 92.1865 21.2087 91.9611 21.8651C91.937 21.9355 91.9137 22.0059 91.8907 22.0766C91.6275 22.8721 91.2465 23.6613 90.7603 24.3444C90.7175 24.4046 90.6755 24.4653 90.6335 24.526C90.3138 24.9864 89.9661 25.4331 89.5627 25.8239C89.5074 25.8791 89.4563 25.9367 89.4054 25.9959C89.2568 26.1681 89.0962 26.3226 88.9239 26.4709C88.8561 26.53 88.7901 26.5908 88.7239 26.6517C88.3782 26.9628 87.9992 27.234 87.6194 27.5014C87.6011 27.5143 87.5828 27.5272 87.564 27.5405C86.1213 28.55 84.4501 29.1479 82.7141 29.393C82.6762 29.3986 82.6383 29.4042 82.5992 29.41C82.2107 29.4628 81.8215 29.4621 81.43 29.4615C81.3154 29.4614 81.2008 29.4621 81.0861 29.4628C78.3456 29.4698 75.6355 28.375 73.644 26.4921C73.5782 26.43 73.5106 26.3705 73.442 26.3115C73.2997 26.1875 73.1661 26.0554 73.0327 25.922C73.0084 25.8982 72.9842 25.8743 72.9592 25.8497C72.8337 25.7245 72.7206 25.5989 72.6173 25.4548C72.562 25.3812 72.4962 25.3196 72.4306 25.2552C72.3431 25.1477 72.2603 25.0368 72.1769 24.9261C72.135 24.8708 72.0923 24.8161 72.0495 24.7615C71.8143 24.4586 71.6168 24.1392 71.4259 23.8069C71.4135 23.7856 71.4011 23.7642 71.3883 23.7422C71.3102 23.6072 71.2341 23.4712 71.1599 23.334C71.1456 23.3076 71.1456 23.3076 71.1309 23.2807C70.7989 22.663 70.5569 21.9964 70.3621 21.3242C70.3539 21.2963 70.3457 21.2685 70.3373 21.2398C70.2274 20.8581 70.1578 20.4736 70.1016 20.081C70.0985 20.0593 70.0954 20.0377 70.0922 20.0154C70.0147 19.4688 70.0003 18.9275 70.0001 18.376C70 18.3411 70 18.3061 70 18.2702C70.0007 17.5485 70.0574 16.8696 70.2265 16.1665C70.2419 16.1012 70.2559 16.0358 70.2692 15.97C70.3292 15.6868 70.4165 15.4139 70.508 15.1396C70.5173 15.1115 70.5173 15.1115 70.5269 15.0828C70.7526 14.4081 71.0248 13.7608 71.3668 13.1372C71.3914 13.0916 71.4161 13.046 71.4408 13.0005C71.5913 12.7241 71.7519 12.4558 71.921 12.1905C71.9581 12.1318 71.9944 12.0726 72.0306 12.0132C72.1892 11.7538 72.3603 11.508 72.5424 11.2646C72.5923 11.1971 72.6398 11.1282 72.6873 11.059C72.7724 10.9363 72.8638 10.8202 72.9579 10.7043C73.0154 10.6326 73.0714 10.56 73.1269 10.4868C73.2671 10.3023 73.4134 10.1244 73.564 9.94833C73.6345 9.86582 73.7032 9.78195 73.7714 9.69757C73.9087 9.52894 74.0512 9.3651 74.1939 9.20112C74.2869 9.09426 74.3793 8.98686 74.4714 8.87923C74.4931 8.85391 74.4931 8.85391 74.5152 8.82807C74.5894 8.74141 74.6635 8.65463 74.7375 8.56774C74.8743 8.4071 75.0119 8.24774 75.1547 8.0923C75.2743 7.962 75.3864 7.82709 75.4974 7.68948C75.5616 7.61173 75.628 7.53688 75.6959 7.46239C75.8116 7.33534 75.9202 7.20359 76.0282 7.06996C76.0934 6.99122 76.1608 6.91536 76.2296 6.83986C76.3165 6.74451 76.3991 6.64749 76.479 6.54615C76.5588 6.4448 76.6414 6.34778 76.7283 6.25243C76.9831 5.99554 76.9831 5.99554 77.1586 5.68902C77.2074 5.63929 77.2567 5.59011 77.3064 5.54124C77.3637 5.47439 77.4181 5.40536 77.4726 5.33619C77.488 5.31682 77.5033 5.29745 77.5191 5.2775C77.5665 5.21771 77.6138 5.15781 77.661 5.0979C77.6893 5.06207 77.7176 5.02624 77.7459 4.99041C77.9264 4.76172 78.1051 4.53168 78.2815 4.29988C78.2953 4.28183 78.309 4.26378 78.3232 4.24519C78.5527 3.94313 78.7742 3.636 78.9907 3.32453C79.0041 3.30535 79.0174 3.28616 79.0312 3.2664C79.3605 2.7926 79.6829 2.31389 79.9854 1.82244C80.0306 1.749 80.0759 1.67565 80.1213 1.60231C80.1379 1.57534 80.1546 1.54836 80.1718 1.52057C80.2054 1.4663 80.239 1.41205 80.2727 1.35783C80.3735 1.19574 80.3735 1.19574 80.4712 1.03185C80.6079 0.802728 80.7682 0.64483 81.0259 0.560109C81.2691 0.506545 81.497 0.548254 81.7121 0.669905ZM81.2366 4.03388C81.1873 4.10937 81.1414 4.18508 81.0962 4.26294C80.8335 4.70364 80.5318 5.1169 80.222 5.52542C80.1544 5.61471 80.0885 5.70513 80.0231 5.79616C79.8016 6.10198 79.5623 6.39366 79.3215 6.68447C79.2138 6.81494 79.1077 6.94654 79.0037 7.08C78.8253 7.30866 78.6425 7.53356 78.4588 7.75795C78.4416 7.77897 78.4244 7.79999 78.4067 7.82165C78.0796 8.22092 77.7465 8.61462 77.4103 9.00622C77.3509 9.07534 77.2917 9.14451 77.2324 9.21369C77.203 9.24803 77.1735 9.28237 77.1441 9.3167C77.0687 9.40468 76.9933 9.49272 76.9181 9.58084C76.6631 9.87919 76.6631 9.87919 76.5325 10.0245C76.4489 10.1178 76.3693 10.2135 76.2906 10.3109C76.1758 10.4524 76.0548 10.5868 75.9315 10.7208C75.8364 10.8267 75.7474 10.937 75.6581 11.0478C75.5928 11.127 75.525 11.203 75.4558 11.2788C75.3586 11.3857 75.2683 11.495 75.1809 11.6099C75.1154 11.6943 75.048 11.777 74.9803 11.8596C74.8127 12.0641 74.6524 12.2714 74.4991 12.4869C74.4421 12.5659 74.3847 12.6447 74.3273 12.7234C74.3135 12.7425 74.2996 12.7617 74.2854 12.7814C74.2722 12.7994 74.259 12.8175 74.2455 12.8361C74.2338 12.8521 74.2222 12.8681 74.2102 12.8847C74.1717 12.9332 74.1291 12.9752 74.0854 13.0189C74.0619 13.0582 74.0399 13.0983 74.0189 13.139C73.9649 13.2392 73.9065 13.3313 73.8397 13.4235C73.723 13.5874 73.6245 13.7602 73.5269 13.936C73.4931 13.9966 73.4586 14.057 73.4241 14.1172C72.8559 15.115 72.4781 16.1667 72.3124 17.3046C72.3089 17.3263 72.3054 17.348 72.3019 17.3704C72.1801 18.1458 72.2188 18.9858 72.3419 19.7577C72.3455 19.7809 72.3492 19.8041 72.3529 19.828C72.4951 20.7111 72.7816 21.5686 73.1989 22.3587C73.2169 22.3931 73.2349 22.4275 73.2535 22.4629C73.4962 22.9202 73.7707 23.3598 74.106 23.7554C74.17 23.8317 74.232 23.9093 74.2941 23.9871C74.4312 24.1549 74.5789 24.3096 74.7326 24.4619C74.7761 24.5052 74.8193 24.5487 74.8625 24.5922C75.0467 24.7768 75.2402 24.9455 75.4447 25.1074C75.4786 25.1352 75.5124 25.163 75.5462 25.191C76.0936 25.6324 76.7032 25.9859 77.3359 26.2896C77.3649 26.3038 77.3649 26.3038 77.3944 26.3182C77.9685 26.597 78.6034 26.8073 79.2271 26.9399C79.271 26.9498 79.3148 26.9598 79.3586 26.9698C81.0773 27.349 83.0506 27.2081 84.6644 26.4965C84.705 26.4792 84.7456 26.4618 84.7863 26.4445C85.577 26.1035 86.352 25.7134 86.9952 25.1327C87.0629 25.0735 87.1329 25.0181 87.2034 24.9623C87.3869 24.8125 87.5544 24.6493 87.7212 24.4813C87.7708 24.4313 87.8207 24.3817 87.8707 24.3321C88.066 24.1371 88.2474 23.9363 88.4173 23.7183C88.4334 23.6978 88.4496 23.6773 88.4662 23.6562C88.6871 23.3737 88.8832 23.0799 89.0674 22.7725C89.0858 22.7421 89.1043 22.7118 89.1234 22.6806C89.4119 22.1985 89.6943 21.6629 89.8357 21.1173C89.8541 21.0551 89.8726 20.9929 89.8911 20.9307C90.4013 19.1232 90.3957 17.3415 89.7766 15.5608C89.7674 15.5343 89.7582 15.5078 89.7487 15.4805C89.63 15.1469 89.4758 14.8301 89.3186 14.5134C89.3094 14.4948 89.3002 14.4762 89.2907 14.457C89.1605 14.1949 89.0173 13.9461 88.8605 13.6987C88.8304 13.6501 88.8003 13.6015 88.7703 13.5529C88.593 13.2689 88.4085 12.9932 88.2104 12.7234C88.1894 12.6942 88.1684 12.6651 88.1468 12.6351C88.0412 12.4885 87.9328 12.3446 87.8217 12.2022C87.7702 12.1361 87.719 12.0698 87.6679 12.0034C87.4737 11.7516 87.2766 11.5037 87.0689 11.2629C87.0264 11.2137 86.9842 11.1644 86.9419 11.115C86.8826 11.0456 86.8231 10.9762 86.7636 10.9069C86.7035 10.837 86.6437 10.7669 86.584 10.6966C86.4295 10.515 86.2727 10.3365 86.1104 10.1617C85.9997 10.0416 85.897 9.91613 85.7946 9.78889C85.7256 9.7055 85.6537 9.62572 85.5804 9.54609C85.4618 9.417 85.3501 9.28397 85.24 9.14755C85.1535 9.04226 85.0643 8.93946 84.9747 8.83675C84.8413 8.68375 84.7108 8.52901 84.5831 8.37124C84.5067 8.27785 84.4287 8.18598 84.3504 8.09415C84.2242 7.94583 84.1035 7.79413 83.9847 7.63972C83.937 7.57842 83.8889 7.52027 83.837 7.46239C83.8175 7.46239 83.798 7.46239 83.7779 7.46239C83.7744 7.44468 83.771 7.42698 83.7674 7.40874C83.7367 7.30496 83.6605 7.23474 83.5895 7.15574C83.4222 6.96512 83.2642 6.76892 83.109 6.56844C83.0548 6.49868 83.0001 6.42932 82.9454 6.35996C82.4481 5.72897 81.9713 5.08693 81.5346 4.41233C81.5192 4.38863 81.5039 4.36492 81.488 4.34049C81.4325 4.25322 81.3795 4.16456 81.3271 4.07534C81.3115 4.05481 81.3115 4.05481 81.2957 4.03388C81.2761 4.03388 81.2566 4.03388 81.2366 4.03388Z" fill="#FECD3B"/>
<path d="M76.7834 13.115C76.9153 13.2009 76.9871 13.2679 77.0286 13.4232C77.0549 13.5795 77.0453 13.7394 77.0428 13.8973C77.0425 13.9371 77.0422 13.9768 77.0419 14.0165C77.0408 14.1841 77.0389 14.3517 77.0367 14.5193C77.0354 14.6223 77.0346 14.7253 77.0341 14.8282C77.0336 14.8855 77.0326 14.9428 77.0316 15C77.0289 15.4977 77.129 16.0847 77.4539 16.477C77.4701 16.4969 77.4864 16.5168 77.5032 16.5373C77.8756 16.9487 78.4811 17.1295 79.0201 17.1602C79.1492 17.1649 79.2783 17.1653 79.4075 17.1645C79.4741 17.1642 79.5407 17.1645 79.6073 17.1649C80.0009 17.1653 80.3797 17.1192 80.7635 17.0294C80.7914 17.0229 80.8192 17.0164 80.8479 17.0098C81.0601 16.9593 81.2655 16.8991 81.4706 16.8244C81.5411 16.7988 81.6119 16.7737 81.6827 16.7486C81.7377 16.7289 81.7927 16.7092 81.8476 16.6895C81.872 16.6808 81.8963 16.672 81.9214 16.6631C82.1026 16.5971 82.2814 16.5259 82.4602 16.4537C82.7652 16.3309 83.0728 16.2164 83.3824 16.1057C83.4092 16.0961 83.436 16.0865 83.4636 16.0766C83.8982 15.9215 84.3327 15.7844 84.7823 15.679C84.8028 15.674 84.8233 15.669 84.8444 15.6639C85.0593 15.6116 85.2767 15.576 85.4952 15.5423C85.5189 15.5387 85.5425 15.535 85.5668 15.5313C86.3515 15.4158 87.241 15.3396 87.9107 15.8297C87.9315 15.8482 87.9523 15.8668 87.9738 15.8859C87.9738 15.9054 87.9738 15.9249 87.9738 15.945C87.9933 15.945 88.0128 15.945 88.0329 15.945C88.6605 16.6938 88.6819 17.9202 88.6092 18.8438C88.4634 20.4292 87.8923 21.9067 86.8213 23.0976C86.7945 23.1308 86.7678 23.1641 86.7412 23.1974C86.7189 23.223 86.6966 23.2486 86.6736 23.2749C86.6541 23.2749 86.6345 23.2749 86.6145 23.2749C86.6066 23.2925 86.5987 23.31 86.5906 23.3281C86.5545 23.3948 86.5185 23.4361 86.4638 23.4882C86.436 23.5147 86.436 23.5147 86.4076 23.5417C86.3875 23.5603 86.3674 23.579 86.3467 23.5982C86.3256 23.6178 86.3046 23.6373 86.283 23.6574C84.8939 24.9294 83.087 25.5567 81.2178 25.5582C81.1953 25.5582 81.1727 25.5582 81.1494 25.5582C80.5274 25.5574 79.9295 25.4853 79.3263 25.332C79.2638 25.3162 79.2012 25.3013 79.1384 25.2868C78.4671 25.1235 77.7924 24.8084 77.2175 24.4276C77.1736 24.3995 77.1736 24.3995 77.1289 24.3708C76.6936 24.0877 76.3125 23.7607 75.9468 23.3932C75.9186 23.3656 75.8904 23.338 75.8621 23.3105C75.6881 23.1402 75.5303 22.9686 75.3854 22.7725C75.3505 22.7287 75.3157 22.6849 75.2809 22.6412C75.0992 22.4108 74.9443 22.1672 74.7943 21.9154C74.7773 21.8871 74.7773 21.8871 74.7598 21.8582C74.289 21.0751 74.0504 20.2408 73.9078 19.344C73.9025 19.317 73.8972 19.29 73.8918 19.2623C73.8738 19.1346 73.8723 19.0088 73.8712 18.88C73.871 18.8522 73.8707 18.8244 73.8704 18.7958C73.8654 18.1909 73.8658 17.6026 73.9965 17.009C74.0027 16.9803 74.0088 16.9516 74.0152 16.9219C74.2132 16.0278 74.5861 15.0908 75.135 14.3503C75.18 14.2898 75.18 14.2898 75.2186 14.2211C75.2806 14.1203 75.3523 14.0295 75.426 13.9371C75.4398 13.9195 75.4537 13.9019 75.468 13.8838C75.5092 13.8318 75.5506 13.78 75.5922 13.7283C75.6051 13.7122 75.6181 13.6961 75.6314 13.6795C75.7354 13.552 75.8509 13.4495 75.9764 13.3441C75.9995 13.3234 76.0227 13.3026 76.0465 13.2813C76.2811 13.1137 76.5013 13.0085 76.7834 13.115Z" fill="#FECD3B"/>
<path d="M96.8354 1.67328L96.5181 1.95399V3.77253C96.5181 4.78554 96.5303 5.72532 96.5303 5.87178C96.5425 6.01823 96.6645 6.25013 96.811 6.39659C97.0551 6.62848 97.226 6.64069 99.1909 6.64069C101.302 6.64069 101.315 6.64069 101.62 6.33556L101.925 6.03044L101.888 3.9434C101.839 1.2217 102.01 1.39257 99.2154 1.39257C97.2504 1.39257 97.1527 1.40477 96.8354 1.67328Z" fill="white"/>
<path d="M96.8476 8.6423L96.5425 8.94742V18.5161V28.0847L96.8232 28.341C97.0917 28.5974 97.2138 28.6096 99.2154 28.6096C101.29 28.6096 101.315 28.6096 101.62 28.3044L101.913 28.0115L101.888 18.4917L101.852 8.97183L101.571 8.69111C101.315 8.42261 101.193 8.4104 99.2276 8.37379L97.1527 8.33717L96.8476 8.6423Z" fill="white"/>
<path d="M106.251 1.80269L105.925 2.09327V15V27.9067L106.251 28.1973C106.564 28.5 106.59 28.5 108.925 28.5C111.26 28.5 111.286 28.5 111.599 28.1973L111.925 27.9067V15V2.09327L111.599 1.80269C111.286 1.5 111.26 1.5 108.925 1.5C106.59 1.5 106.564 1.5 106.251 1.80269Z" fill="white"/>
</svg>
